<?xml version="1.0" standalone="no"?>
<!DOCTYPE svg PUBLIC "-//W3C//DTD SVG 20010904//EN"
 "http://www.w3.org/TR/2001/REC-SVG-20010904/DTD/svg10.dtd">
<svg version="1.0" xmlns="http://www.w3.org/2000/svg"
 width="253.000000pt" height="253.000000pt" viewBox="0 0 253.000000 253.000000"
 preserveAspectRatio="xMidYMid meet">
<metadata>
Created by potrace 1.14, written by Peter Selinger 2001-2017
</metadata>
<g transform="translate(0.000000,253.000000) scale(0.100000,-0.100000)"
fill="#000000" stroke="none">
<path d="M1130 2489 c-58 -11 -152 -29 -210 -40 -315 -61 -577 -246 -704 -497
-34 -67 -173 -457 -192 -538 -51 -220 -10 -481 107 -675 44 -75 155 -213 312
-392 180 -204 422 -317 687 -320 141 -2 190 7 190 32 0 14 12 22 48 30 26 7
126 36 222 65 l175 54 3 -38 3 -39 42 15 c64 23 182 89 245 138 144 112 246
257 308 440 18 52 24 91 24 156 0 58 10 133 30 228 41 192 42 336 4 478 -15
55 -30 131 -33 169 -7 86 -15 97 -219 335 -153 177 -223 241 -339 306 l-63 35
0 -36 c0 -32 -3 -36 -17 -30 -140 61 -218 81 -385 101 -39 4 -48 9 -48 25 0
16 -7 19 -42 18 -24 -1 -90 -10 -148 -20z m-354 -767 c121 -62 178 -195 140
-327 -23 -77 -98 -154 -175 -180 -140 -46 -293 19 -352 150 -28 60 -25 166 5
231 27 58 90 116 150 138 59 22 179 16 232 -12z m314 -98 c0 -64 4 -114 9
-112 4 2 52 54 106 116 l98 112 79 0 79 0 -100 -116 -101 -115 55 -75 c30 -41
80 -108 110 -149 l56 -75 -83 0 -83 1 -53 72 c-29 40 -62 83 -73 96 l-20 25
-39 -45 c-35 -39 -39 -50 -40 -96 l0 -53 -65 0 -65 0 0 265 0 265 65 0 65 0 0
-116z m651 -30 l124 -146 3 146 3 146 64 0 65 0 0 -265 0 -265 -52 1 -53 0
-120 139 -120 139 -5 -137 -5 -137 -67 -3 -68 -3 0 266 0 265 53 0 54 0 124
-146z m-713 -504 c30 -19 40 -39 26 -53 -4 -4 -20 5 -36 18 -44 37 -110 35
-149 -4 -24 -24 -29 -38 -29 -76 0 -40 5 -52 34 -81 37 -37 80 -44 126 -21 35
18 39 47 6 47 -16 0 -26 6 -26 15 0 11 11 15 41 15 l40 0 -3 -37 c-6 -73 -112
-108 -186 -63 -44 27 -75 96 -66 146 7 39 46 91 78 104 39 16 110 11 144 -10z
m213 -9 c20 -20 29 -40 30 -63 l1 -33 9 31 c5 18 25 46 44 63 30 26 44 31 87
31 64 0 109 -27 133 -79 43 -95 -26 -201 -131 -201 -60 0 -104 34 -130 99 -15
36 -23 47 -27 37 -4 -9 -18 -21 -32 -28 l-25 -11 35 -43 c39 -47 41 -54 21
-54 -13 0 -106 99 -106 112 0 3 13 8 29 11 92 19 76 127 -19 127 l-40 0 0
-125 c0 -104 -2 -125 -15 -125 -13 0 -15 22 -15 140 l0 140 61 0 c54 0 64 -3
90 -29z m361 -77 c3 -97 5 -107 27 -125 30 -24 82 -24 112 0 22 18 24 28 27
125 3 86 7 106 19 106 12 0 14 -18 11 -111 l-3 -111 -33 -29 c-25 -23 -42 -29
-77 -29 -35 0 -52 6 -77 29 l-33 29 -3 111 c-3 93 -1 111 11 111 12 0 16 -20
19 -106z m359 96 c28 -16 51 -67 44 -99 -10 -45 -47 -73 -105 -79 l-50 -5 0
-43 c0 -32 -4 -44 -15 -44 -13 0 -15 22 -15 140 l0 140 61 0 c33 0 69 -5 80
-10z"/>
<path d="M582 1613 c-75 -37 -104 -137 -61 -212 30 -53 93 -86 146 -76 79 14
123 70 123 153 0 112 -110 184 -208 135z"/>
<path d="M1345 1058 c-52 -46 -49 -126 6 -172 35 -30 76 -33 119 -11 32 17 60
61 60 95 0 29 -26 76 -52 94 -34 24 -102 21 -133 -6z"/>
<path d="M1852 1018 l3 -63 36 -3 c66 -6 106 54 68 101 -17 22 -29 27 -65 27
l-45 0 3 -62z"/>
</g>
</svg>
